<?xml version="1.0" encoding="UTF-8" standalone="no"?>
<svg
   xmlns:dc="http://purl.org/dc/elements/1.1/"
   xmlns:cc="http://creativecommons.org/ns#"
   xmlns:rdf="http://www.w3.org/1999/02/22-rdf-syntax-ns#"
   xmlns:svg="http://www.w3.org/2000/svg"
   xmlns="http://www.w3.org/2000/svg"
   xmlns:sodipodi="http://sodipodi.sourceforge.net/DTD/sodipodi-0.dtd"
   xmlns:inkscape="http://www.inkscape.org/namespaces/inkscape"
   version="1.1"
   id="svg1422"
   width="450"
   height="250"
   viewBox="0 0 450 250"
   sodipodi:docname="vector3.svg"
   inkscape:version="1.0.2 (e86c870879, 2021-01-15, custom)">
  <title id="title1997">logo</title>
  <metadata id="metadata1428">
    <rdf:RDF>
      <cc:Work
         rdf:about="">
        <dc:format>image/svg+xml</dc:format>
        <dc:type
           rdf:resource="http://purl.org/dc/dcmitype/StillImage" />
        <dc:title>logo</dc:title>
      </cc:Work>
    </rdf:RDF>
  </metadata>
  <defs
     id="defs1426" />
  <sodipodi:namedview
     pagecolor="#ffffff"
     bordercolor="#666666"
     borderopacity="1"
     objecttolerance="10"
     gridtolerance="10"
     guidetolerance="10"
     inkscape:pageopacity="0"
     inkscape:pageshadow="2"
     inkscape:window-width="1920"
     inkscape:window-height="986"
     id="namedview1424"
     showgrid="false"
     inkscape:zoom="1.5777778"
     inkscape:cx="273.80967"
     inkscape:cy="46.190278"
     inkscape:window-x="-11"
     inkscape:window-y="-11"
     inkscape:window-maximized="1"
     inkscape:current-layer="icon-logo" />
  <g
     inkscape:groupmode="layer"
     inkscape:label="Image"
     id="icon-logo">
    <path
       style="fill: #FDF5BF"
       d="m 267.27763,218.83725 -4.95476,-2.57667 3.79913,-1.94907 c 2.08952,-1.07199 3.90036,-1.80404 4.0241,-1.62677 0.89922,1.28828 4.5863,8.02482 4.5863,8.37946 0,1.02661 -2.81598,0.1854 -7.45477,-2.22695 z m -96.03405,-1.66355 -4.98881,-2.3076 2.48881,-1.53634 c 6.68876,-4.12895 16.21618,-8.80024 16.98261,-8.32656 0.47316,0.29243 1.38378,2.11784 2.02358,4.05647 1.41393,4.28424 0.37235,5.90471 -5.51737,8.58389 -5.04385,2.29439 -5.00961,2.29586 -10.98882,-0.46986 z m 103.4119,-1.58974 c -1.6077,-1.60769 -2.91491,-3.29519 -2.90493,-3.75 0.026,-1.18247 17.86235,-10.51881 18.88637,-9.88593 0.96867,0.59867 4.44419,7.61053 3.93093,7.93067 -0.1845,0.11508 -2.02313,1.45157 -4.08584,2.96998 -3.798,2.79578 -9.76482,5.65836 -11.79441,5.65836 -0.60998,0 -2.42443,-1.31538 -4.03212,-2.92308 z m -118.23045,-5.02663 c -5.6069,-3.80878 -8.61198,-4.6899 -18.07555,-5.29998 l -3.88292,-0.25031 7.88292,-4.14181 c 11.58546,-6.08719 11.83701,-6.11705 13.79001,-1.63741 0.90619,2.07857 2.94994,5.80422 4.54166,8.27922 2.89154,4.49612 3.71567,7.00211 2.30125,6.99762 -0.4125,-0.001 -3.36331,-1.77761 -6.55737,-3.94733 z m 32.79447,-2.07072 c -1.4615,-2.31517 -2.28148,-4.5605 -1.82219,-4.98962 0.4593,-0.42913 4.77259,-2.89325 9.58509,-5.47582 7.6326,-4.09595 8.75,-4.45208 8.75,-2.78871 0,1.04878 -2.98895,5.25211 -6.64211,9.34073 -3.65316,4.08862 -6.77068,7.58887 -6.92781,7.77833 -0.15714,0.18946 -1.48148,-1.54975 -2.94298,-3.86491 z m 71.32907,2.09047 c -1.34946,-1.06148 -4.56134,-4.39715 -7.13751,-7.4126 l -4.68396,-5.48263 4.92667,-3.03141 c 5.70338,-3.50932 5.01619,-3.98155 11.14792,7.66072 3.65895,6.94725 4.13316,8.45618 2.90215,9.23469 -2.27414,1.4382 -4.47394,1.14036 -7.15527,-0.96877 z m -95.56269,-1.31075 c -2.09659,-2.24216 -9.25928,-13.62889 -9.24716,-14.70046 0.003,-0.30736 1.24098,-1.26044 2.75,-2.11796 10.8412,-6.16066 16.24368,-8.85103 16.24368,-8.08916 0,0.48764 2.07308,4.54567 4.60684,9.01783 2.53377,4.47217 4.38177,8.71776 4.10667,9.43466 -0.50247,1.30941 -10.41866,6.92816 -14.28047,8.09165 -1.41695,0.4269 -2.73131,-0.0877 -4.17956,-1.63656 z m 103.43195,-3.50929 c -5.18636,-8.31269 -8.00518,-14.32864 -7.10883,-15.17174 0.50787,-0.47769 4.81379,-2.95608 9.5687,-5.50752 l 8.6453,-4.63898 5.18582,9.61967 c 2.8522,5.29081 5.03682,9.73992 4.8547,9.8869 -1.00109,0.80796 -17.63575,9.56167 -18.17001,9.56167 -0.34981,0 -1.68887,-1.6875 -2.97568,-3.75 z m 25.97243,-0.53142 c -1.37946,-2.32022 -2.19581,-4.54207 -1.81411,-4.93745 0.96297,-0.99749 17.33548,-9.78113 18.23181,-9.78113 0.40084,0 1.23422,1.2375 1.85196,2.75 0.61774,1.5125 2.222,4.55 3.56502,6.75 l 2.44186,4 -8.044,0.61872 c -5.90523,0.45421 -8.79915,1.17703 -10.88421,2.71858 l -2.84022,2.09986 z M 120.7324,199.9855 c -5.775,-2.37496 -11.2875,-4.35419 -12.25,-4.39828 -3.41067,-0.15626 -1.656,-1.99198 5.88068,-6.15232 7.23333,-3.99288 7.68886,-4.11369 8.74809,-2.32004 3.95451,6.69645 9.4005,17.37564 8.81749,17.29047 -0.38294,-0.0559 -5.42126,-2.04487 -11.19626,-4.41983 z m 60.02353,-7.02948 c -2.90298,-5.24023 -5.10836,-9.66873 -4.90084,-9.84112 1.28827,-1.07016 17.75301,-9.60786 18.52852,-9.60786 1.45735,0 8.72251,15.58372 8.06453,17.29838 -0.56004,1.45946 -5.30471,4.97981 -12.8149,9.50814 l -3.59915,2.17014 z m 136.16151,4.30102 c -5.24018,-7.65044 -5.23427,-7.66639 4.83498,-13.05915 4.93875,-2.64503 9.44085,-4.52405 10.00466,-4.1756 0.56381,0.34846 2.59107,3.74314 4.50502,7.54373 l 3.47991,6.91017 -3.75481,1.61313 c -4.77488,2.05139 -14.32097,5.41772 -15.36331,5.41772 -0.43747,0 -2.10538,-1.9125 -3.70645,-4.25 z m -184.44271,1.26195 c -2.29462,-1.80494 -8.74233,-11.66998 -8.74233,-13.37581 0,-0.34122 1.51473,-1.41144 3.36606,-2.37827 1.85134,-0.96683 5.66138,-2.99537 8.46676,-4.50787 5.62423,-3.03226 8.16718,-3.46346 8.16718,-1.38486 0,0.75083 0.83233,2.43833 1.84962,3.75 2.16747,2.7947 7.15038,11.63028 7.15038,12.6789 0,0.94092 -10.60663,5.76108 -14.56561,6.61931 -2.29303,0.49708 -3.72753,0.14391 -5.69206,-1.4014 z m 76.05629,-2.27717 -1.70139,-3.59874 5.43624,-3.06802 c 7.07255,-3.9915 7.76817,-3.87403 2.708,0.45729 -2.91807,2.49775 -4.20931,4.44097 -4.43,6.66675 l -0.31147,3.14145 z m 77.73018,-5.13846 c -2.42461,-4.45298 -4.66562,-8.77174 -4.98001,-9.59726 -0.41968,-1.10197 1.95694,-2.80724 8.94108,-6.41538 5.23198,-2.70295 9.65897,-4.72752 9.83776,-4.49906 0.74424,0.95104 4.67599,7.79049 7.45005,12.95968 l 2.97536,5.54431 -9.90792,5.05201 -9.90793,5.05201 z m -40.77039,0.65368 c -3.89456,-4.09442 -4.18219,-6.90458 -1.40374,-13.7147 1.33845,-3.28059 2.82377,-6.09478 3.30071,-6.25376 0.86121,-0.28707 10.34462,16.57916 10.34462,18.3979 0,1.0487 -6.32087,4.32056 -8.34684,4.32056 -0.70344,0 -2.45607,-1.2375 -3.89475,-2.75 z m -93.92117,-3.99124 c -1.39273,-2.61732 -3.73874,-6.85048 -5.21337,-9.40702 l -2.68113,-4.64826 9.54938,-5.14793 c 9.55564,-5.1513 11.50788,-5.51288 11.50788,-2.13139 0,0.99337 0.82421,2.87931 1.83157,4.19098 1.00736,1.31167 2.87902,4.27741 4.15923,6.59054 2.77158,5.00776 2.21152,6.10318 -4.85049,9.48706 -2.55217,1.22291 -5.31531,2.75161 -6.14031,3.39709 -3.92436,3.07044 -5.53295,2.61107 -8.16276,-2.33107 z m 187.36144,1.99124 c -1.06563,-1.5125 -2.90583,-4.6633 -4.08933,-7.00178 l -2.15182,-4.25179 3.27124,-2.01046 c 4.24121,-2.60661 10.34543,-4.25589 12.83136,-3.46688 2.66813,0.84682 5.1244,5.91333 4.74848,9.79459 -0.24669,2.54697 -1.2844,3.83845 -5.17162,6.43632 -5.92095,3.95703 -6.96375,4.01227 -9.43831,0.5 z M 105.11129,189.4515 c -3.25969,-1.20584 -6.378894,-5.8519 -6.378894,-9.5014 0,-2.58791 0.83144,-3.99517 3.908374,-6.61514 2.1496,-1.83035 5.19396,-4.07846 6.76524,-4.99578 l 2.85687,-1.66786 4.80706,8.94211 4.80706,8.94211 -4.72023,2.08798 c -6.83892,3.02518 -9.67262,3.68576 -12.04548,2.80798 z m 98.41492,-3.01504 c -1.37544,-2.43618 -3.76274,-6.65575 -5.30513,-9.37681 -1.54239,-2.72106 -2.36957,-5.09231 -1.83817,-5.26945 0.53139,-0.17713 4.50423,-2.3383 8.82852,-4.80261 4.32429,-2.4643 8.09597,-4.48055 8.3815,-4.48055 0.28553,0 -0.91628,1.4034 -2.67069,3.11866 -3.62285,3.54201 -3.72862,4.28562 -1.68984,11.88134 1.92599,7.17552 1.90672,7.41563 -0.8527,10.62365 l -2.3527,2.73518 z m 51.91663,-3.79903 c -4.53547,-8.3971 -4.78248,-12.23799 -0.96044,-14.93405 2.67261,-1.88526 12.73223,-7.19634 13.63045,-7.19634 0.59639,0 10.87481,19.10089 10.45067,19.42098 -1.49728,1.12993 -17.83674,9.57902 -18.52461,9.57902 -0.4871,0 -2.55534,-3.09133 -4.59607,-6.86961 z m 50.8964,-4.23812 c -2.59859,-5.00926 -4.58568,-9.22321 -4.41577,-9.36435 0.16991,-0.14114 3.89952,-2.34266 8.28802,-4.89227 7.21027,-4.18898 12.47316,-5.98544 11.11982,-3.79569 -0.28552,0.46198 1.40537,3.94948 3.75755,7.75 6.5693,10.61436 6.75861,9.72061 -3.15017,14.87249 -4.78846,2.48967 -9.19419,4.52912 -9.79052,4.53211 -0.59633,0.003 -3.21035,-4.09304 -5.80893,-9.10229 z m -189.00879,-4.1599 c -2.52893,-4.63938 -4.59805,-8.92754 -4.59805,-9.52924 0,-1.15449 0.56923,-1.51311 11.80521,-7.4374 l 7.08241,-3.73427 2.9163,5.73426 c 1.60396,3.15386 3.87757,7.30928 5.05245,9.23428 1.17488,1.925 2.13784,3.8628 2.13989,4.30623 0.002,0.44343 -2.13376,1.75126 -4.74626,2.9063 -2.6125,1.15503 -5.875,2.90851 -7.25,3.8966 -1.375,0.9881 -3.69338,2.08047 -5.15195,2.4275 -2.48273,0.59071 -2.94535,0.0927 -7.25,-7.80426 z m 53.43758,0.32863 c -6.37982,-10.92375 -6.51774,-11.61951 -2.74048,-13.8247 5.31555,-3.10325 15.91507,-8.36161 16.20375,-8.03858 0.55031,0.61577 9.5011,18.78123 9.5011,19.2823 0,0.28599 -0.42589,0.51998 -0.94642,0.51998 -0.52054,0 -3.61993,1.5669 -6.88755,3.48199 -10.939,6.41118 -10.53396,6.44922 -15.1304,-1.42099 z m 104.57694,-4.311 c -6.45251,-11.85024 -6.41786,-11.03095 -0.58203,-13.76429 2.80539,-1.31398 5.3406,-2.7772 5.63379,-3.2516 0.2932,-0.4744 -2.21112,0.52273 -5.56516,2.21584 l -6.09824,3.07837 -4.70656,-9.47472 c -2.58861,-5.2111 -4.50132,-9.66044 -4.25047,-9.88742 0.25086,-0.22698 4.46154,-2.68849 9.35708,-5.47001 l 8.90098,-5.05732 3.64386,7.18058 c 2.00413,3.94932 4.29868,8.22049 5.09902,9.49148 1.56472,2.48489 1.74042,2.20281 -3.70822,5.95332 -1.01014,0.69532 -0.39647,0.58282 1.36372,-0.25 3.80823,-1.80184 5.29966,-1.91301 5.29966,-0.39503 0,0.96618 4.07532,8.20694 8.79175,15.62061 1.26089,1.98198 1.23377,2.31317 -0.23562,2.87702 -0.9133,0.35047 -5.11365,2.60505 -9.33412,5.01019 -4.22047,2.40514 -7.99841,4.37298 -8.39542,4.37298 -0.39702,0 -2.74332,-3.7125 -5.21402,-8.25 z m 54.84259,3.42106 c -1.05304,-2.01908 -3.16124,-5.74583 -4.68489,-8.28166 -1.52365,-2.53583 -2.76083,-5.46083 -2.74929,-6.5 0.0158,-1.41891 4.65099,-4.37948 18.61469,-11.88939 10.22654,-5.5 19.13237,-10.12918 19.79072,-10.28706 1.12337,-0.2694 6.39966,9.42254 5.49319,10.09035 -2.23337,1.64538 -16.36985,4.88533 -19.26537,4.41545 -2.80114,-0.45456 -3.422,-0.27717 -2.98802,0.85374 0.30128,0.78513 1.02464,1.42752 1.60747,1.42752 0.58282,0 0.75913,0.30054 0.3918,0.66788 -0.36734,0.36733 -3.47984,0.82208 -6.91667,1.01054 -3.43683,0.18847 -7.5798,0.70272 -9.20658,1.14279 -2.88925,0.78157 -2.78218,0.88688 4.62082,4.54476 4.16823,2.05956 8.59748,4.69389 9.84277,5.85405 2.1983,2.04803 2.20933,2.15059 0.37918,3.52556 -1.03674,0.77889 -4.38928,2.69424 -7.45009,4.25635 l -5.5651,2.84018 z m -90.56092,-1.07227 c 1.70817,-1.59567 3.10576,-3.36497 3.10576,-3.93178 0,-0.56681 -1.33868,-4.66127 -2.97485,-9.09879 -1.63616,-4.43751 -2.64866,-8.03458 -2.25,-7.99348 0.39867,0.0411 2.81716,4.20999 5.37442,9.26417 l 4.64957,9.18945 -4.90009,2.73582 c -6.23609,3.48174 -6.87162,3.44676 -3.00481,-0.16539 z m -145.427864,-1.0444 c 0.75539,-1.22224 11.735854,-8.81103 14.013724,-9.68513 0.96857,-0.37167 1.5199,-0.004 1.5199,1.01259 0,0.9945 -3.05056,3.12962 -8.09563,5.66623 -4.452604,2.23872 -7.799694,3.59156 -7.437994,3.00631 z m 44.620064,-7.14223 c -2.24754,-3.89832 -4.08644,-7.63331 -4.08644,-8.29999 0,-0.66669 -0.44208,-1.65424 -0.9824,-2.19456 -0.6432,-0.6432 2.36544,-2.76049 8.71373,-6.13216 l 9.69613,-5.14977 5.20834,9.66231 5.20835,9.6623 -8.67208,4.74732 c -4.76964,2.61103 -9.19567,4.75747 -9.83563,4.76986 -0.63995,0.0124 -3.00245,-3.167 -5.25,-7.06531 z m 51.11277,-3.41773 -4.90128,-9.50557 5.52576,-2.99288 c 3.03917,-1.64608 7.05543,-3.54601 8.92503,-4.22207 3.15281,-1.14007 3.53728,-1.04956 5.30303,1.24846 2.24572,2.92265 2.46131,8.34693 0.61517,15.47763 -0.98088,3.78865 -2.10225,5.54511 -4.62859,7.25 -1.83375,1.2375 -3.91994,2.25 -4.63597,2.25 -0.71603,0 -3.50745,-4.27751 -6.20315,-9.50557 z m 58.35061,5.2985 c -0.34538,-1.81111 -1.37032,-6.3235 -2.27766,-10.02753 -1.62375,-6.62864 -1.61611,-6.77025 0.48526,-9 2.34,-2.48295 10.90711,-7.45346 11.58672,-6.72244 0.23371,0.25138 2.50244,4.61168 5.04164,9.68957 l 4.61673,9.23251 -5.25125,2.64207 c -2.88819,1.45315 -7.12376,3.73033 -9.41238,5.06042 l -4.16111,2.41833 z m 50.20135,-2.59275 c -4.20852,-6.3595 -7.91811,-14.32276 -7.3553,-15.7894 0.29268,-0.76273 0.0642,-1.27968 -0.50771,-1.14877 -1.2247,0.2803 -9.79245,-14.28499 -10.14565,-17.24773 -0.19362,-1.62421 1.6173,-3.04587 8.98337,-7.05232 l 9.22589,-5.01803 4.76068,9.27804 c 2.61838,5.10292 4.70504,9.8357 4.63702,10.51728 -0.068,0.68158 0.20139,1.03835 0.59867,0.79281 0.66247,-0.40943 8.96614,13.75919 10.33819,17.64012 0.45665,1.29168 -1.44101,2.8276 -8.3397,6.74999 -4.91198,2.79281 -9.09962,5.07783 -9.30587,5.07783 -0.20624,0 -1.50656,-1.70992 -2.88959,-3.79982 z m 6.24883,-23.73386 c 0,-0.275 -2.25,0.64016 -5,2.03369 -2.75,1.39353 -5,2.75869 -5,3.03369 0,0.275 2.25,-0.64016 5,-2.03369 2.75,-1.39353 5,-2.75869 5,-3.03369 z m -193.43903,21.63233 c -0.55477,-0.89763 2.87487,-3.23336 10.93903,-7.44993 2.97874,-1.55752 2.94826,-1.56892 -4.29966,-1.60867 -8.22024,-0.0451 -11.62566,-1.38493 -14.9295,-5.87389 l -2.22916,-3.02879 3.22916,-1.94777 c 8.26287,-4.984 16.08871,-8.13608 17.43201,-7.02124 1.03491,0.8589 1.21428,0.77927 0.78203,-0.34717 -0.85639,-2.23171 17.93039,-12.93542 19.51579,-11.11905 0.38303,0.43883 2.80971,4.72909 5.39263,9.53391 l 4.69622,8.73603 -5.79476,2.89785 c -13.27784,6.63998 -28.00223,14.35361 -30.95959,16.21873 -1.89219,1.19334 -3.40988,1.59948 -3.7742,1.00999 z m 17.11322,-16.96528 c -5.67261,-8.65372 -5.78065,-8.72601 -2.08716,-1.3966 2.00573,3.98022 4.01007,7.01225 4.45407,6.73784 0.444,-0.27441 -0.62111,-2.67797 -2.36691,-5.34124 z m 33.51281,13.01483 c -1.05669,-2.0065 -3.35425,-6.3073 -5.10567,-9.55732 -2.50172,-4.64229 -2.90538,-6.10455 -1.88287,-6.82066 2.45344,-1.71827 17.85804,-9.04708 18.1995,-8.6585 1.88565,2.14585 9.63842,17.34836 9.29673,18.23008 -0.24686,0.63702 -4.52979,3.2499 -9.51763,5.8064 l -9.06879,4.64819 z m 50.78013,-3.2513 c -1.35692,-2.9152 -3.8968,-7.68457 -5.64417,-10.59862 -1.74738,-2.91405 -3.05402,-5.29827 -2.90364,-5.29827 0.15037,0 1.69501,0.70919 3.43252,1.57597 3.74182,1.86667 5.14816,4.1635 5.14816,8.40795 0,1.71347 0.70233,4.47356 1.56074,6.13353 0.8584,1.65997 1.40611,3.48199 1.21712,4.04895 -0.18898,0.56695 -1.45381,-1.35432 -2.81073,-4.26951 z m -108.23308,1.60576 c -4.973094,-4.37653 -10.834024,-5.14262 -22.333194,-2.91917 -2.898875,0.56051 -3.560926,0.0602 -10.245354,-7.74212 -3.930418,-4.58775 -7.148305,-8.63072 -7.15086,-8.98437 -0.0072,-1.00099 3.423298,-2.07162 3.73041,-1.16422 1.31156,3.87516 10.142141,16.86036 11.662628,17.14967 1.680546,0.31977 11.300876,-3.41216 12.602316,-4.88871 0.76693,-0.87013 7.02153,-3.27397 7.385094,-2.83833 0.79864,0.957 7.75001,13.88111 7.45098,13.85299 -0.18484,-0.0174 -1.58075,-1.12696 -3.10202,-2.46574 z m 211.37334,-9.27481 c -2.96594,-5.35031 -7.77117,-14.27783 -10.67829,-19.83892 l -5.28568,-10.11108 9.52085,-5.21303 c 5.23647,-2.86716 9.64716,-5.06718 9.80155,-4.88892 1.6586,1.91507 10.31238,18.37397 9.96025,18.94372 -0.25786,0.41723 -4.48867,2.90654 -9.4018,5.53181 -4.91313,2.62527 -8.77935,4.92683 -8.59161,5.11457 0.18774,0.18775 4.53529,-1.90809 9.66122,-4.65741 l 9.31986,-4.99876 5.35304,9.55185 c 2.94417,5.25352 5.21358,9.62529 5.04313,9.71504 -0.17045,0.0898 -2.33491,1.17493 -4.80991,2.41151 -2.475,1.23657 -6.525,3.55473 -9,5.15145 -2.475,1.59672 -4.725,2.92852 -5,2.95957 -0.275,0.031 -2.92668,-4.32109 -5.89261,-9.6714 z m -136.96486,-6.14318 -5.13317,-9.81573 5.96385,-2.67642 c 5.50526,-2.47061 6.17773,-2.56377 8.74532,-1.2115 1.52981,0.8057 5.24075,3.97423 8.24654,7.04117 6.37915,6.50894 6.54068,6.11521 -5.07722,12.37605 l -7.61216,4.10216 z m 58.85747,8.12703 c 0,-0.60405 0.79758,-1.6863 1.77241,-2.40499 0.97482,-0.71868 2.21232,-2.29101 2.75,-3.49405 0.53767,-1.20304 2.81822,-4.13743 5.06788,-6.52086 2.24965,-2.38342 4.28394,-4.91449 4.52064,-5.62458 0.2367,-0.71009 1.41688,0.73948 2.62263,3.22128 l 2.19227,4.51236 -7.71291,4.20049 c -4.24211,2.31027 -8.50042,4.87732 -9.46292,5.70456 -1.02475,0.88075 -1.75,1.04892 -1.75,0.40579 z m -156.570744,-5.1045 c -3.43223,-1.55889 -10.429261,-8.33389 -10.429261,-10.09832 0,-0.29449 4.026522,-2.68696 8.947827,-5.3166 l 8.947824,-4.78116 1.40898,2.29445 c 1.88153,3.06395 8.69537,15.77025 8.69537,16.21492 0,0.1934 -1.53051,1.07791 -3.40113,1.96558 -4.43453,2.10432 -9.12576,2.01199 -14.16961,-0.27887 z m 259.167934,-1.5992 c -0.87845,-1.34069 -1.59719,-2.65592 -1.59719,-2.92273 0,-0.2668 -1.57384,-3.09514 -3.49743,-6.28518 -1.92359,-3.19004 -3.49859,-6.13 -3.5,-6.53323 -10e-4,-0.40324 2.24743,-1.87332 4.99743,-3.26685 2.75,-1.39353 5,-2.75869 5,-3.03369 0,-0.275 -2.23504,0.63258 -4.96676,2.01684 -2.73171,1.38427 -5.15602,2.51685 -5.38734,2.51685 -0.23132,0 -2.75752,-4.11019 -5.61377,-9.13376 -4.27428,-7.51759 -4.95776,-9.3535 -3.86266,-10.37563 1.73265,-1.61721 17.79808,-9.866924 18.24892,-9.370944 1.04777,1.15267 9.58161,17.710874 9.58161,18.591204 0,0.57557 -1.35966,1.60968 -3.02146,2.29802 -1.6618,0.68834 -3.28384,1.67608 -3.60453,2.19497 -0.3207,0.5189 1.23601,0.0154 3.45934,-1.11884 l 4.04243,-2.0623 5.1649,9.55252 c 2.84069,5.25388 5.00614,9.69329 4.81211,9.86534 -1.02309,0.9072 -11.85349,6.66861 -15.0056,7.98247 -3.54602,1.47806 -3.69949,1.45131 -5.25,-0.91506 z m 24.99213,-1.74063 c -1.38822,-2.32795 -2.20123,-4.53076 -1.80668,-4.89514 2.04626,-1.88977 18.29317,-9.9434 19.07921,-9.4576 1.89291,1.16988 2.17865,5.69777 0.57309,9.08124 -1.59833,3.36822 -10.54842,9.50414 -13.86311,9.50414 -0.80216,0 -2.59429,-1.90469 -3.98251,-4.23264 z M 99.471216,139.71475 c -0.82203,-0.93923 -3.36871,-5.0443 -5.65929,-9.12237 -3.19185,-5.68267 -3.86275,-7.61104 -2.87211,-8.25534 3.30693,-2.15077 18.033284,-9.91867 18.278904,-9.64181 0.15215,0.1715 1.73697,3.23682 3.52182,6.81182 1.78485,3.575 4.13727,7.76341 5.22761,9.30758 1.09034,1.54416 1.82084,2.93628 1.62334,3.09358 -0.59544,0.47426 -8.0265,4.33203 -13.49238,7.00445 -4.81305,2.35322 -5.22653,2.40326 -6.627894,0.80209 z m 47.618544,-8.68268 -5.14263,-9.46081 4.35059,-2.54962 c 4.70133,-2.75517 13.05678,-6.51459 14.4789,-6.51459 0.86715,0 10.96007,16.38713 10.95121,17.78068 -0.004,0.62055 -17.96624,10.23161 -19.08584,10.21223 -0.22528,-0.004 -2.72378,-4.26445 -5.55223,-9.46789 z m 109.61789,3.90988 c -1.47851,-3.88877 -1.42105,-3.99269 5.27475,-9.53943 3.4375,-2.84759 6.43066,-5.65597 6.65146,-6.24084 0.22081,-0.58488 1.23331,-1.95629 2.25,-3.04758 1.83863,-1.97354 1.84854,-1.97223 1.84854,0.24423 0,1.22562 0.9,3.99254 2,6.14872 1.1,2.15618 2,4.13023 2,4.38677 0,0.59435 -17.51606,10.61323 -18.55517,10.61323 -0.27188,0 -0.93319,-1.15429 -1.46958,-2.5651 z M 63.410579,132.68961 c -0.830351,-0.92541 -3.386329,-5.16933 -5.679951,-9.43095 -3.599608,-6.68816 -3.944013,-7.83519 -2.517011,-8.38278 2.107307,-0.80865 2.300731,-0.56642 7.818268,9.79093 3.459937,6.49489 4.272616,8.79046 3.250813,9.18256 -0.749315,0.28754 -2.041769,-0.23435 -2.872119,-1.15976 z M 386.46201,130.1311 c -1.50129,-2.68178 -2.72618,-5.15678 -2.722,-5.5 0.0108,-0.88235 14.29595,-8.15383 14.87703,-7.57275 0.26326,0.26326 -0.86406,1.93442 -2.50516,3.71368 -4.84455,5.25242 -5.67961,6.64565 -6.31581,10.53742 l -0.60446,3.6976 z m -29.61984,-5.81403 c -4.53245,-8.37685 -4.82364,-9.30149 -3.29109,-10.45026 1.5138,-1.13472 1.47628,-1.20881 -0.37664,-0.74361 -1.7563,0.44094 -2.77183,-0.88384 -6.92829,-9.03811 -2.67869,-5.255134 -4.67761,-9.710964 -4.44205,-9.901844 2.44415,-1.98055 18.16677,-9.64685 18.88021,-9.20592 0.51726,0.31968 2.97434,4.57796 5.46016,9.46283 l 4.51969,8.881594 -2.21588,1.45042 c -1.21873,0.79773 -4.57838,2.647 -7.46588,4.1095 -2.8875,1.46249 -5.25,2.91558 -5.25,3.22909 0,0.31351 3.40955,-1.26907 7.57678,-3.51684 4.16724,-2.24778 7.76272,-4.08687 7.98997,-4.08687 0.54519,0 9.43325,17.71449 9.43325,18.80109 0,0.96865 -16.10462,10.19891 -17.79468,10.19891 -0.61773,0 -3.36073,-4.13549 -6.09555,-9.18998 z m -292.010224,-2.01889 -4.973605,-9.19219 3.466457,-2.35552 c 3.451602,-2.34542 12.727825,-7.24342 13.718178,-7.24342 0.472998,0 10.68942,17.80296 10.68942,18.6272 0,0.194 -4.03354,2.37849 -8.963423,4.85443 l -8.963423,4.5017 z m 52.699524,2.93578 c -7.15583,-12.41373 -7.83491,-14.72691 -4.32339,-14.72691 0.74671,0 1.50765,-0.37347 1.69099,-0.82992 0.18333,-0.45646 2.80833,-1.97774 5.83333,-3.38062 10.01157,-4.64299 9.23883,-4.88871 14.39965,4.57893 2.53019,4.6417 4.60035,8.87537 4.60035,9.40815 0,0.53278 -2.1375,2.07194 -4.75,3.42036 -2.6125,1.34842 -6.80008,3.64535 -9.30573,5.1043 l -4.55573,2.65263 z m 50.16639,-5.29079 c -2.84407,-5.26013 -4.946,-9.78891 -4.67095,-10.06396 0.27504,-0.27505 1.87009,-0.53904 3.54455,-0.58665 2.23297,-0.0635 4.99245,1.39934 10.3527,5.48807 4.21912,3.21829 8.57631,5.71492 10.30824,5.90653 2.72704,0.3017 2.24699,0.71804 -5.27606,4.57589 -4.55183,2.3342 -8.45862,4.244 -8.68175,4.244 -0.22313,0 -2.73266,-4.30375 -5.57673,-9.56388 z m 108.78454,2.71047 c -0.9625,-2.091 -1.74539,-4.44189 -1.73975,-5.2242 0.006,-0.78232 3.14227,-3.89739 6.97029,-6.92239 3.82802,-3.025 7.22873,-6.2875 7.55714,-7.25 0.73602,-2.15717 2.46232,-2.30914 2.46232,-0.21676 0,0.84329 1.15566,3.81384 2.56814,6.60123 2.53372,5.00006 2.6401,7.86553 0.29199,7.86553 -0.66146,0 -1.91308,0.61732 -2.78139,1.37181 -1.478,1.28428 -12.60884,7.65889 -13.27469,7.60239 -0.16723,-0.0142 -1.09155,-1.73661 -2.05405,-3.82761 z m 101.32323,-9.00066 -5.04628,-10.05588 8.23653,-4.484824 c 11.90893,-6.48446 11.12978,-6.44312 13.59132,-0.72112 2.63663,6.129024 2.67403,8.167464 0.23678,12.905734 -1.75019,3.40255 -3.76749,5.58649 -9.78182,10.58989 l -2.19025,1.82209 z m -290.141714,5.12699 c -0.78704,-1.52511 -3.1707,-5.83332 -5.29703,-9.5738 -2.12633,-3.74049 -3.701453,-6.92893 -3.500273,-7.08543 1.56473,-1.21722 17.893983,-9.613694 18.696463,-9.613694 0.56256,0 1.64295,1.2375 2.40087,2.75 0.757914,1.5125 3.024824,5.689554 5.037584,9.282344 l 3.65956,6.53234 -9.193634,4.96766 c -5.0565,2.73221 -9.4589,5.09047 -9.7831,5.24058 -0.32421,0.1501 -1.23341,-0.9749 -2.02044,-2.5 z m 48.173204,-8.52292 -5.04146,-9.25 6.69851,-3.250004 c 3.68418,-1.7875 7.26865,-3.25 7.96549,-3.25 1.84134,0 8.97472,6.706494 12.34735,11.608444 l 2.90538,4.22283 -4.30572,2.08437 c -2.36814,1.1464 -4.62259,2.08436 -5.00987,2.08436 -0.38728,0 -2.48626,1.125 -4.6644,2.5 -2.17814,1.375 -4.38631,2.5 -4.90704,2.5 -0.52073,0 -3.21544,-4.1625 -5.98824,-9.25 z m 160.95561,1.09775 c -3.97415,-9.02898 -4.05176,-8.7877 4.88503,-15.186064 4.43005,-3.17173 8.05464,-6.22813 8.05464,-6.79201 0,-0.56388 1.87264,2.62713 4.16143,7.09112 2.45516,4.788504 3.78772,8.467564 3.25,8.972914 -0.50129,0.47112 -4.85478,2.97275 -9.67442,5.55918 l -8.76299,4.70262 z M 48.191502,105.31394 c -4.673118,-9.601444 -5.276714,-11.818764 -3.209107,-11.788744 1.175931,0.0171 10.75,16.779374 10.75,18.821124 0,0.52071 -0.693402,1.21284 -1.540893,1.53805 -1.161141,0.44557 -2.639838,-1.66661 -6,-8.57043 z m 5.660092,-3.56936 -4.96635,-9.896604 3.09212,-1.82657 c 1.700667,-1.0046 5.603775,-3.09988 8.673576,-4.65616 5.053234,-2.56182 5.695818,-2.6763 6.789871,-1.20965 1.84634,2.47515 9.51839,17.459224 9.131919,17.835304 -0.187184,0.18215 -2.815335,1.49954 -5.840335,2.92754 -3.025,1.42799 -6.943251,3.52479 -8.707225,4.65955 l -3.207226,2.0632 z m 55.537256,7.99469 c -0.24178,-0.40272 -2.52211,-4.62576 -5.06739,-9.38453 l -4.627794,-8.652314 4.769364,-2.89782 c 7.87355,-4.78389 12.48663,-6.65029 14.03038,-5.67651 0.77154,0.48667 3.59758,4.60382 6.2801,9.14922 l 4.8773,8.264364 -5.14636,2.48269 c -2.8305,1.36547 -5.52108,2.48268 -5.97908,2.48268 -0.45799,0 -2.60216,1.117 -4.76481,2.48222 -2.16265,1.36523 -4.12992,2.15273 -4.37171,1.75 z m 46.49452,-11.520744 c -6.39648,-11.54984 -7.45834,-14.92422 -2.37011,-7.53175 1.63551,2.37615 5.31254,6.50729 8.17119,9.18031 4.55605,4.260194 5.58045,4.783464 8.29983,4.239584 3.98438,-0.79687 3.08662,0.0552 -3.05749,2.90177 l -4.91444,2.2769 z m 241.52864,2.691784 c -2.04765,-4.138224 -3.48256,-7.913074 -3.1887,-8.388564 0.50776,-0.82157 17.21794,-10.0147 18.20353,-10.0147 0.25778,0 -0.52367,1.60566 -1.73655,3.56813 -3.38576,5.47828 -6.12641,11.40934 -7.92266,17.145524 l -1.63263,5.21366 z m -79.73176,-0.65603 c -1.23815,-2.335984 -2.85516,-5.372234 -3.59336,-6.747234 -2.3466,-4.3709 -2.95627,-3.64851 9.5131,-11.27189 3.50217,-2.14111 6.70447,-3.51835 7.11623,-3.06052 0.41175,0.45782 2.38366,3.80033 4.38201,7.42779 4.18502,7.59676 4.13126,7.72906 -4.86583,11.975 -2.75,1.29779 -6.19271,3.161624 -7.65048,4.141854 l -2.65048,1.78223 z m 52.04144,-1.997234 c -1.21696,-2.3375 -3.50727,-6.57897 -5.08958,-9.42548 l -2.87693,-5.17548 3.23861,-1.93992 c 8.41968,-5.04336 15.88255,-8.45895 16.64827,-7.61954 0.45678,0.50073 2.76997,4.68223 5.14043,9.29222 4.17559,8.12057 4.24976,8.42584 2.37991,9.79509 -2.17057,1.58946 -16.09142,9.323114 -16.78193,9.323114 -0.24537,0 -1.44183,-1.9125 -2.65878,-4.250004 z m -293.323051,0 c -2.773049,-4.52173 -8.751814,-15.99656 -8.463151,-16.24302 2.018671,-1.72356 18.362298,-10.27558 18.946958,-9.91424 1.00741,0.62261 9.85322,16.81163 9.8401,18.00869 -0.009,0.80837 -16.93868,10.398574 -18.356851,10.398574 -0.322957,0 -1.208132,-1.012504 -1.967056,-2.250004 z m 48.422891,-8.27462 c -2.79902,-5.23854 -5.08913,-9.73854 -5.08913,-10 0,-0.26146 1.71843,-0.47538 3.81873,-0.47538 2.73025,0 5.65187,1.1493 10.25,4.03214 3.5372,2.21767 7.89377,4.69871 9.68127,5.51342 1.7875,0.8147 3.25,1.69522 3.25,1.9567 0,0.45789 -15.50559,8.49774 -16.38867,8.49774 -0.23819,0 -2.72317,-4.28608 -5.5222,-9.52462 z m -87.095543,-5.98956 c -2.364207,-5.2328 -4.00494,-9.8078 -3.646075,-10.16667 0.873671,-0.87367 0.759996,-1.0393 6.110471,8.90348 4.234556,7.86908 4.944016,10.77737 2.629069,10.77737 -0.437199,0 -2.729259,-4.28138 -5.093465,-9.51418 z m 298.717123,1.64508 c -2.04089,-3.77857 -3.71071,-7.29906 -3.71071,-7.82331 0,-0.94241 17.90021,-10.83967 18.3749,-10.15972 3.55844,5.09714 6.77042,11.27752 6.92531,13.32543 0.17598,2.32695 -0.67376,3.10653 -7.13147,6.54262 -10.97661,5.84054 -10.2329,5.93751 -14.45803,-1.88502 z m 50.97788,-3.76848 c -2.64628,-5.26511 -4.67128,-9.6928 -4.5,-9.83931 1.03429,-0.88474 17.97922,-9.52311 18.68042,-9.52311 0.46953,0 2.27364,3.38273 4.00914,7.51719 2.93692,6.99662 3.05406,7.71322 1.69152,10.34809 -1.17903,2.27999 -12.97676,11.22729 -14.63939,11.1024 -0.23665,-0.0178 -2.59542,-4.34014 -5.24169,-9.60526 z m -343.150015,0.88758 c -5.893457,-12.3998 -5.90959,-12.28182 2.266959,-16.57847 3.84281,-2.01934 7.454958,-3.67153 8.026994,-3.67153 0.86205,0 11.167467,16.99119 11.167467,18.4125 0,0.24596 -2.1375,1.48141 -4.75,2.74545 -2.6125,1.26405 -6.428558,3.32062 -8.480128,4.57016 -2.051571,1.24954 -3.91411,2.27189 -4.138976,2.27189 -0.224866,0 -2.066408,-3.4875 -4.092316,-7.75 z m 53.275671,5 c -0.82265,-0.9625 -3.34953,-5.23893 -5.61528,-9.50317 l -4.11956,-7.75317 3.7103,-1.59506 c 4.87358,-2.09515 9.997634,-2.07705 14.110614,0.0499 3.53917,1.83018 12.09968,9.29837 12.09968,10.55577 0,0.41222 -2.1375,1.73258 -4.75,2.93413 -2.6125,1.20155 -6.55,3.27457 -8.75,4.6067 -4.803794,2.90875 -4.802294,2.9086 -6.685754,0.70495 z m 261.075494,-10.5 c -1.183,-2.3375 -2.99215,-5.44447 -4.02032,-6.90437 -2.59344,-3.6824 -2.39655,-4.32199 1.88058,-6.10919 2.0625,-0.86181 6.41471,-2.6926 9.67158,-4.06842 l 5.92157,-2.50149 1.69098,2.16674 c 0.93003,1.1917 2.69146,4.13703 3.91427,6.54517 1.85031,3.6439 1.99919,4.5958 0.88745,5.67412 -1.47896,1.43449 -15.90907,9.41108 -17.06553,9.43337 -0.40132,0.008 -1.69758,-1.89843 -2.88058,-4.23593 z M 62.174649,71.953606 c -2.580057,-4.73318 -4.747543,-9.27471 -4.816634,-10.09228 -0.192369,-2.27635 10.898017,-6.66623 14.930219,-5.90978 3.224184,0.60486 9.885552,6.7747 12.412782,11.49686 0.65638,1.22646 1.42367,1.99968 1.70509,1.71826 0.28142,-0.28142 -1.64625,-4.48246 -4.28371,-9.33565 l -4.795384,-8.82397 3.873164,2.93092 c 4.8117,3.64113 14.05265,7.51379 18.00473,7.54535 2.807974,0.0224 2.863324,0.099 1.000004,1.38304 -1.084884,0.74761 -9.030034,5.03439 -17.655884,9.52616 l -15.683364,8.16686 z m 52.375411,-1.04841 c -2.55794,-4.61898 -4.26378,-8.39815 -3.79077,-8.39815 0.47302,0 1.67298,1.38051 2.66657,3.06779 2.53297,4.30139 9.95179,9.05935 12.95173,8.30641 3.80848,-0.95586 2.71285,0.41067 -2.41096,3.00711 l -4.76577,2.415 z m 292.77255,-1.21853 -4.42987,-8.82039 7.5591,-3.74034 c 4.92968,-2.43927 7.89954,-3.39991 8.5378,-2.76165 0.63825,0.63825 0.0249,4.22482 -1.76334,10.31072 -1.50811,5.13262 -2.96365,10.34454 -3.23454,11.58204 -0.27088,1.2375 -0.88554,2.25 -1.3659,2.25 -0.48036,0 -2.86683,-3.96917 -5.30325,-8.82038 z M 31.245522,68.192706 c -0.83222,-1.99178 -1.44111,-5.99838 -1.35309,-8.90354 0.117544,-3.87961 0.262067,-4.3528 0.544301,-1.78212 0.211345,1.925 1.085176,5.66665 1.941847,8.31478 1.86059,5.75144 1.016983,7.51665 -1.133058,2.37088 z m 346.210448,-4.84304 c -2.07703,-3.9177 -3.65203,-7.2028 -3.5,-7.30021 2.29506,-1.47047 18.02974,-6.64059 19.40599,-6.37644 2.01975,0.38766 7.71861,9.9148 6.56829,10.98063 -0.66769,0.61864 -18.0621,9.87172 -18.49071,9.83626 -0.11393,-0.009 -1.90653,-3.22253 -3.98357,-7.14024 z M 35.394017,63.175056 c -0.997371,-3.48259 -1.666751,-7.87009 -1.487511,-9.75 0.271578,-2.84838 0.978566,-3.73662 4.242228,-5.32984 3.500263,-1.70871 4.190829,-1.75894 6.5,-0.47282 2.147822,1.19625 9.961903,11.2157 10.048632,12.88465 0.02462,0.47379 -16.131277,9 -17.053657,9 -0.23996,0 -1.252322,-2.84939 -2.249692,-6.33199 z m 19.577734,-4.91801 c -1.398526,-1.73854 -7.441132,-13.89769 -7.054832,-14.19599 0.173512,-0.13399 5.040476,1.2878 10.815476,3.15953 6.889721,2.23302 11.531508,3.21059 13.5,2.84312 2.658669,-0.4963 2.488004,-0.26432 -1.5,2.03892 -5.142495,2.97001 -13.733116,7.40442 -14.344312,7.40442 -0.225939,0 -0.863289,-0.5625 -1.416332,-1.25 z m 343.603299,-5.02071 -3.65735,-6.22929 5.65735,-1.20636 c 8.36233,-1.78318 11.85676,-1.59423 14.21985,0.76886 1.13437,1.13438 1.89875,2.59688 1.69861,3.25 -0.33973,1.10862 -12.55854,9.7123 -13.72862,9.66679 -0.29287,-0.0114 -2.1783,-2.8239 -4.18984,-6.25 z"
       id="path1995" />
  </g>
</svg>
